Coordinates
version=1
nRows=17
nColumns=36
inDegrees=yes

Units are S.I. units (second, meters, Newtons, ...)
If the header above contains a line with 'inDegrees', this indicates whether rotational values are in degrees (yes) or radians (no).

endheader
time	pelvis_tilt	pelvis_list	pelvis_rotation	pelvis_tx	pelvis_ty	pelvis_tz	hip_flexion_r	hip_adduction_r	hip_rotation_r	knee_angle_r	knee_angle_r_beta	ankle_angle_r	subtalar_angle_r	mtp_angle_r	hip_flexion_l	hip_adduction_l	hip_rotation_l	knee_angle_l	knee_angle_l_beta	ankle_angle_l	subtalar_angle_l	mtp_angle_l	lumbar_extension	lumbar_bending	lumbar_rotation	arm_flex_r	arm_add_r	arm_rot_r	elbow_flex_r	pro_sup_r	arm_flex_l	arm_add_l	arm_rot_l	elbow_flex_l	pro_sup_l
      2.95000000	     -2.88693150	      1.73278018	      8.31048566	      0.58792845	      1.04609960	      0.01117033	     24.57711203	     -7.48650047	     -0.43148994	      6.52773014	      0.11393038	    -26.39524031	      0.11656976	     -7.49999987	     31.90711828	    -10.26303273	    -17.23752857	     14.05821530	      0.24536214	    -27.82020483	     -2.73688088	     -7.49999987	    -26.35176495	     -4.36348214	      3.17110652	     58.44849112	    -16.96677997	     34.55840753	     82.54013614	     91.62187291	     47.49339720	    -29.05524352	     21.82205282	    105.91226274	     82.87935141
      2.96666670	     -2.09998547	      1.60586303	      7.85178356	      0.60041467	      1.00946701	      0.01328138	     25.45453010	     -7.07918834	     -0.70144765	      7.33245586	      0.12797550	    -26.70715008	     -0.23217926	     -7.49999987	     32.14142867	    -10.56190751	    -15.24815829	     16.10911571	      0.28115711	    -27.52119349	     -3.00652045	     -7.49999987	    -27.06811768	     -4.34332741	      3.95107605	     58.95352914	    -18.40377474	     35.55906211	     83.49385043	     90.70907659	     46.83898354	    -29.15064988	     21.42894728	    106.47978168	     82.05236551
      2.98333330	     -1.08749931	      1.08278257	      7.85985253	      0.62863577	      0.97077633	      0.01204461	     25.37801119	     -6.36852449	     -1.55993355	      8.59438822	      0.15000037	    -29.72422766	     -1.44044678	     -7.49999987	     31.49921308	    -10.86053371	    -13.35426999	     17.69479940	      0.30883251	    -29.81606421	     -2.31355357	     -7.49999987	    -27.66836797	     -3.45607577	      4.11116075	     59.89606078	    -18.47180675	     37.11916606	     83.98487149	     90.00457187	     44.24454934	    -29.81491767	     19.39624336	    108.55565610	     80.83824338
      3.00000000	      0.52159772	      0.32251463	      7.94450820	      0.65543726	      0.93112451	      0.00527833	     24.88827125	     -5.42131396	     -1.80147430	     10.73869393	      0.18742557	    -29.29046089	     -2.29778156	     -7.49999987	     29.12054402	    -11.43132288	    -14.08885032	     17.87887626	      0.31204526	    -31.70506169	     -4.06138722	     -7.49999987	    -28.17534447	     -2.45313882	      4.83964156	     59.56506451	    -18.79196275	     37.03046135	     83.49888785	     89.51092134	     43.36389675	    -29.68726135	     18.87266224	    108.67962291	     80.40345297
      3.01666670	      1.49225608	     -0.56211939	      7.54316289	      0.66387050	      0.88865624	      0.00631799	     26.55891252	     -3.96220885	     -0.76294768	     15.74768023	      0.27484887	    -22.62043586	     -5.18761724	     -7.49999987	     29.95887814	    -12.24281414	    -11.81677570	     22.96616010	      0.40083511	    -23.42967971	     -3.66731511	     -7.49999987	    -29.50663383	     -1.71820615	      5.84335148	     61.39052490	    -18.66972363	     37.37348675	     83.06086721	     87.22589317	     44.37029252	    -29.36288840	     19.00065597	    109.36892767	     78.84541226
      3.03333330	      1.89731948	     -1.10017484	      8.05964079	      0.67673216	      0.84843962	     -0.00111681	     31.44598180	     -3.36043138	      0.42926253	     26.97934731	      0.47087844	    -13.01021072	    -11.78183956	     -7.49999987	     33.18343739	    -13.11613329	    -11.43354025	     31.61321802	      0.55175474	    -13.72055962	     -6.99129684	     -7.49999987	    -30.98492827	     -1.08809763	      6.11818064	     62.84160152	    -18.92966494	     35.87378832	     84.27990155	     91.83004139	     46.26812776	    -28.46550793	     19.67775724	    110.55471305	     81.93116391
      3.05000000	      2.26047596	     -1.39985425	      8.84047047	      0.69486832	      0.82249989	     -0.00540910	     38.59833563	     -3.13616717	      1.53975140	     43.19387068	      0.75387526	     -3.85711211	    -18.46520044	     -7.49999987	     38.09695267	    -14.43031343	    -11.39846788	     43.11000889	      0.75241160	     -4.24460937	    -11.40190954	     -7.49999987	    -33.01500180	     -0.58164802	      6.29484379	     64.01750404	    -19.21697467	     34.44604147	     87.82435885	     87.63832324	     47.62921491	    -27.33438231	     20.00305571	    112.54671536	     79.39559317
      3.06666670	      1.62803711	     -1.20477659	      9.47012123	      0.70009908	      0.78771810	     -0.00703398	     46.64813668	     -3.24952941	      3.01854442	     58.41281035	      1.01949587	      4.78687708	    -21.17239399	     -7.49999987	     44.95381803	    -14.40335468	     -8.25573096	     55.12642768	      0.96213767	      5.32661732	    -13.07011999	     -7.49999987	    -34.29853368	     -1.10958370	      6.93587278	     65.27852890	    -20.35574799	     31.60479462	     91.27102360	     94.43118265	     51.77335369	    -24.77077613	     21.34443654	    111.70163726	     85.12639811
      3.08333330	      0.85028864	     -1.09560977	      9.46519820	      0.70274280	      0.76893100	     -0.00790180	     52.66265485	     -2.90154433	      4.39005237	     68.61234761	      1.19751137	     11.03061667	    -20.96850711	     -7.49999987	     50.93959286	    -13.75207381	     -4.96687818	     64.91782416	      1.13302977	     11.88750281	    -13.85689402	     -7.49999987	    -36.47376082	     -1.29965462	      6.75590042	     68.55544548	    -19.55564239	     31.57480310	     92.02691006	     94.76479865	     55.32747843	    -22.67068727	     20.93713158	    111.76947168	     85.59341653
      3.10000000	     -0.39792023	     -0.74213468	      9.50772965	      0.70253667	      0.75433153	     -0.00485122	     57.19664545	     -2.82660704	      5.38398915	     74.40660546	      1.29864025	     14.57296623	    -20.70986105	     -7.49999987	     55.82490170	    -12.78334489	     -2.84039477	     70.66631623	      1.23335989	     15.57334563	    -12.94478926	     -7.49999987	    -39.29526504	     -2.13278637	      7.31771596	     71.54837025	    -19.33508463	     30.15599474	     93.76068657	     96.26766039	     59.55517654	    -19.48743977	     20.70220223	    110.47228579	     87.41708222
      3.11666670	     -2.03196608	     -0.61522365	      9.05274627	      0.71205045	      0.73013529	     -0.00187084	     61.09224033	     -2.24705228	      6.04479270	     78.11069371	      1.36328879	     17.70695131	    -20.00537164	     -7.49999987	     60.76833149	    -12.76903971	     -1.39532854	     75.92317062	      1.32510931	     18.40102299	    -11.34212375	     -7.49999987	    -41.44786984	     -2.80407885	      7.05236981	     75.27301886	    -16.86173016	     28.92081251	     93.67582641	     96.41265480	     63.99495534	    -17.71297225	     19.65673000	    109.48175239	     87.62244926
      3.13333330	     -4.17505555	     -0.43670359	      8.91029484	      0.71549991	      0.70696978	     -0.00137608	     65.16048667	     -1.87982139	      6.82578220	     81.01280423	      1.41394017	     19.73228938	    -20.03353933	     -7.49999987	     65.22974457	    -12.95947954	     -0.80065224	     79.65020928	      1.39015840	     20.13454796	    -10.45056631	     -7.49999987	    -42.69110773	     -3.83790475	      6.93276937	     77.36011522	    -15.47880981	     26.40351524	     96.37335121	     98.48407551	     68.31844183	    -14.75948374	     19.81473521	    109.21510883	     89.71305560
      3.15000000	     -6.38440327	     -0.70885602	      8.90387028	      0.71514391	      0.68330018	      0.00027341	     69.87276226	     -1.48059570	      7.23982519	     84.43415611	      1.47365403	     21.46717167	    -19.52117625	     -7.49999987	     70.56162232	    -13.24924569	      0.05947139	     83.86096493	      1.46364995	     22.58561127	     -8.08802472	     -7.49999987	    -43.70572778	     -4.42316514	      6.31598922	     80.34538866	    -13.74585904	     25.09163354	     98.68068970	     97.89101663	     74.61653124	    -13.21481486	     20.28340130	    108.72738881	     89.50509877
      3.16666670	     -8.49693984	     -1.01631729	      9.05861189	      0.71627937	      0.66687394	      0.00070921	     74.10834743	     -1.33364975	      7.64813357	     87.33211221	      1.52423290	     22.52437452	    -19.38017814	     -7.49999987	     75.25713236	    -13.49794558	      0.66771931	     87.03056910	      1.51896998	     23.87896768	     -5.86042160	     -7.49999987	    -44.59537653	     -4.70640654	      5.38925922	     84.46958252	    -11.71219087	     24.77626032	     99.66121651	     98.12852607	     80.13100274	    -12.38959970	     20.73095748	    108.59496106	     89.83899561
      3.18333330	    -10.45098238	     -1.33536084	      9.12316501	      0.71680563	      0.65369230	      0.00105077	     77.82538474	     -1.35370426	      7.75847604	     89.56663172	      1.56323262	     22.71534030	    -19.58896866	     -7.49999987	     78.84074800	    -13.64866017	      1.11047071	     89.10850613	      1.55523682	     24.31877208	     -5.30836131	     -7.49999987	    -45.52910498	     -4.93024410	      4.28664622	     87.25820351	     -9.33589095	     24.34874474	    100.76390457	     98.08849992	     84.82133014	    -10.77680315	     20.07254877	    109.05961904	     89.83680680
      3.20000000	    -12.95362666	     -1.70329102	      8.91553956	      0.72226929	      0.63192598	      0.00009158	     82.43074388	     -1.62609273	      7.54746341	     92.33630303	      1.61157251	     23.63266250	    -18.26737706	     -7.49999987	     83.16714942	    -14.21461053	      1.59270602	     91.62983770	      1.59924236	     25.11317182	     -3.73910842	     -7.49999987	    -45.29200881	     -5.19795505	      3.11640043	     88.95903588	     -7.59750129	     24.00382816	    104.10314529	     97.24327170	     88.14166386	    -10.89612103	     20.84030255	    111.94892035	     89.70607595
      3.21666670	    -15.49838190	     -2.20034068	      9.33764570	      0.71818049	      0.62333485	      0.00277151	     86.40092148	     -2.38495533	      7.27676964	     93.83282898	      1.63769181	     24.05797209	    -17.09047415	     -7.49999987	     87.37080649	    -14.15985803	      2.18773256	     93.45705320	      1.63113329	     23.77109704	     -4.83461116	     -7.49999987	    -45.23268590	     -5.02345161	      2.60498645	     91.54671657	     -6.77935313	     23.84401134	    106.58889584	     98.25927813	     90.78609272	    -10.23696588	     21.00160711	    114.23279623	     90.54985123
